<svg xmlns="http://www.w3.org/2000/svg" xmlns:xlink="http://www.w3.org/1999/xlink" width="63" height="62" viewBox="0 0 63 62">
  <defs>
    <filter id="Ellipse_5" x="0" y="0" width="63" height="62" filterUnits="userSpaceOnUse">
      <feOffset dy="3" input="SourceAlpha"/>
      <feGaussianBlur stdDeviation="3" result="blur"/>
      <feFlood flood-opacity="0.161"/>
      <feComposite operator="in" in2="blur"/>
      <feComposite in="SourceGraphic"/>
    </filter>
  </defs>
  <g id="Gruppe_14" data-name="Gruppe 14" transform="translate(-182 -340)">
    <path id="Icon_awesome-pause" data-name="Icon awesome-pause" d="M10.125,33.68H3.375A3.376,3.376,0,0,1,0,30.3V5.555A3.376,3.376,0,0,1,3.375,2.18h6.75A3.376,3.376,0,0,1,13.5,5.555V30.3A3.376,3.376,0,0,1,10.125,33.68ZM31.5,30.3V5.555A3.376,3.376,0,0,0,28.125,2.18h-6.75A3.376,3.376,0,0,0,18,5.555V30.3a3.376,3.376,0,0,0,3.375,3.375h6.75A3.376,3.376,0,0,0,31.5,30.3Z" transform="translate(198 349.82)" fill="#004824"/>
    <g transform="matrix(1, 0, 0, 1, 182, 340)" filter="url(#Ellipse_5)">
      <ellipse id="Ellipse_5-2" data-name="Ellipse 5" cx="22.5" cy="22" rx="22.5" ry="22" transform="translate(9 6)" fill="rgba(255,255,255,0)"/>
    </g>
  </g>
</svg>
